<svg version="1.1" id="图层_1" xmlns:x="ns_extend;" xmlns:i="ns_ai;" xmlns:graph="ns_graphs;" xmlns="http://www.w3.org/2000/svg" xmlns:xlink="http://www.w3.org/1999/xlink" x="0px" y="0px" viewBox="0 0 290.8 56" style="enable-background:new 0 0 290.8 56;" xml:space="preserve">
 <style type="text/css">
  .st0{fill:#252728;}
 </style>
 <metadata>
  <sfw xmlns="ns_sfw;">
   <slices>
   </slices>
   <sliceSourceBounds bottomLeftOrigin="true" height="56" width="290.8" x="-111.5" y="31.3">
   </sliceSourceBounds>
  </sfw>
 </metadata>
 <g>
  <path class="st0" d="M82.8,8.3c-4.4-6.7-12.1-8-17.2-8.1C61.1,0,41.4,0,30,0C7.4,0,20.3,0,0,0v10.8c24.1,0,52.7,0,65.2,0.1
		c2.2,0,4.4,0.3,6.2,1.8c1.6,1.5,2.2,3.7,1.5,5.7c-1.2,3.2-4.4,4-7.7,4.1c-5,0.1-18.6,0.1-28.8,0.1c-25,0-14.2,0-36.5,0v10.7
		c24.1,0,52.8,0,65.2,0.1c3.9,0,8,1.4,8,5.7s-4.1,5.8-8,5.8C52.8,45.3,24.1,45.2,0,45.2V56c24.2,0,55.8,0.1,65.6-0.1
		c5.2-0.1,12.8-1.4,17.2-8.1c4.2-6.3,3.1-14.5-2.3-19.7C85.9,22.7,87,14.6,82.8,8.3z">
  </path>
  <path class="st0" d="M279.6,6.5c-7.4-5.3-15.3-6-21.8-6.2c-6.4-0.1-16-0.2-24.5-0.2C212.5,0,225,0,205.2,0v10.8
		c21,0,35.8-0.2,52,0.3c4.8,0.1,9.9,0.6,14.5,3.8c4.4,3,7,7.9,7,13.1s-2.5,10.1-6.9,13.1c-4.6,3.2-9.7,3.7-14.5,3.8
		c-16.3,0.5-31,0.3-52,0.3L205.2,56c21.2,0,36.4,0.1,52.6-0.3c6.5-0.1,14.5-0.9,21.8-6.2c7-5,11.2-12.9,11.2-21.5
		C290.8,19.3,286.6,11.5,279.6,6.5z">
  </path>
  <g>
   <path class="st0" d="M118.2,24.2c-5.6-0.1-7.4-1.9-7.5-7.6c0-5.2,0-11.3,0-16.6H98.3c0,5.3-0.1,16.1,0.1,21.3
			c0.4,10.1,3.7,13.3,14.1,13.6c7.2,0.2,12.9,0.2,22.8,0.1V24.3C127.3,24.3,124.1,24.3,118.2,24.2z">
   </path>
   <path class="st0" d="M179.8,16.8c0,5.5-1.8,7.3-7.5,7.4c-2.7,0-9.8,0.1-15.6,0.1l0,0c0,0,0,0,0,0l0,0c-6,0-12.3,0-16,0V56h14.6
			V35.1c0.4,0,0.9,0,1.4,0l0,0c0,0,0,0,0,0v0c7.6,0,17.1,0,20.7-0.1c11-0.3,14.3-3.4,14.7-13.7c0-1.4,0.1-3.1,0.1-5V0h-12.4
			C179.9,5.4,179.9,11.5,179.8,16.8z">
   </path>
  </g>
 </g>
</svg>